<?xml version="1.0" encoding="utf-8"?>
<!-- Generator: Adobe Illustrator 16.0.0, SVG Export Plug-In . SVG Version: 6.00 Build 0)  -->
<!DOCTYPE svg PUBLIC "-//W3C//DTD SVG 1.1//EN" "http://www.w3.org/Graphics/SVG/1.1/DTD/svg11.dtd">
<svg version="1.1" id="Layer_1" xmlns="http://www.w3.org/2000/svg" xmlns:xlink="http://www.w3.org/1999/xlink" x="0px" y="0px"
	 width="200px" height="200px" viewBox="0 0 200 200" enable-background="new 0 0 200 200" xml:space="preserve">
<g>
	<path fill="#FFFFFF" d="M161.456,106.688c5.245,0.683,9.888,4.303,14.593,6.693c-14.001-27.032-31.244-6.686-53.692-6.24
		c-6.081,0.12-12.099-1.373-17.836-3.286c0.769,5.672,7.777,10.164,12.644,10.834C137.933,117.553,145.157,104.574,161.456,106.688z
		"/>
	<g>
		<path fill="#FFFFFF" d="M68.892,103.673c-1.741-17.122,10.771-32.468,27.892-34.209c17.138-1.75,32.469,10.771,34.211,27.893
			l-5.998,0.61c-1.404-13.815-13.796-23.899-27.603-22.507c-13.814,1.406-23.911,13.788-22.506,27.603L68.892,103.673z"/>
	</g>
	<path fill="#FFFFFF" d="M139.684,115.229c-5.513,3.197-11.384,4.752-17.95,4.752c-9.414,0-18.95-3.131-29.047-6.444
		c-10.71-3.517-21.784-7.152-33.393-7.152c-12.973,0-24.729,4.661-35.941,14.253l1.466,1.886c7.413-5.227,15.832-7.762,26.495-7.979
		c12.792-0.277,21.826,2.642,35.81,7.144l2.115,0.682c2.249,0.722,4.56,1.558,6.793,2.365c6.908,2.501,14.053,5.086,21.254,5.086
		c9.033,0,16.858-4.186,23.923-12.797l4.192-5.109L139.684,115.229z"/>
	<path fill="#FFFFFF" d="M143.194,92.569h8.752c1.758,0,3.145,0.273,4.153,0.814c1.009,0.542,1.777,1.525,2.302,2.944l0.251,0.668
		c2.349,0.114,4.617,0.674,6.816,1.838l-0.895-2.391c-1.047-2.882-2.73-4.527-5.05-4.939c2.544-0.749,4.506-2.04,5.892-3.873
		c1.384-1.832,2.078-4.059,2.078-6.679c0-3.629-1.173-6.417-3.511-8.362c-2.338-1.945-5.694-2.918-10.071-2.918h-16.445v32.279
		c1.951-0.594,3.86-1.218,5.728-1.825V92.569z M143.194,74.331h10.043c2.955,0,5.136,0.551,6.539,1.655
		c1.401,1.103,2.102,2.796,2.102,5.078c0,2.282-0.71,3.995-2.13,5.137c-1.421,1.138-3.592,1.709-6.511,1.709h-10.043V74.331z"/>
	<g>
		<path fill="#FFFFFF" d="M147.023,112.201h2.787v2.467h-2.787V112.201z M147.184,126.914v-10.123h2.486v10.123H147.184z"/>
		<path fill="#FFFFFF" d="M161.837,120.702v6.212h-2.506v-6.094c0-0.801-0.155-1.385-0.462-1.754
			c-0.308-0.366-0.781-0.551-1.423-0.551c-0.761,0-1.376,0.244-1.845,0.732c-0.468,0.487-0.7,1.131-0.7,1.932v5.734h-2.486v-7.258
			c0-1.068-0.055-2.024-0.16-2.865h2.345l0.182,1.665c0.346-0.616,0.817-1.091,1.412-1.424c0.594-0.333,1.267-0.502,2.015-0.502
			C160.627,116.53,161.837,117.922,161.837,120.702z"/>
		<path fill="#FFFFFF" d="M174.285,116.791v9.803c0,1.576-0.434,2.773-1.303,3.588s-2.146,1.224-3.828,1.224
			c-1.564,0-2.941-0.326-4.13-0.982l0.4-1.903c1.229,0.64,2.453,0.96,3.668,0.96c1.806,0,2.707-0.894,2.707-2.685v-2.004
			c-0.308,0.547-0.755,0.992-1.344,1.332c-0.588,0.339-1.249,0.511-1.984,0.511c-0.882,0-1.667-0.211-2.354-0.63
			c-0.689-0.422-1.224-1.016-1.604-1.784c-0.381-0.768-0.572-1.648-0.572-2.638s0.191-1.866,0.572-2.635
			c0.381-0.768,0.915-1.364,1.604-1.783c0.688-0.422,1.473-0.634,2.354-0.634c0.748,0,1.414,0.159,1.995,0.472
			c0.582,0.313,1.025,0.752,1.333,1.312v-1.523H174.285z M171.088,123.848c0.475-0.548,0.712-1.303,0.712-2.266
			s-0.233-1.718-0.702-2.265c-0.468-0.548-1.123-0.821-1.964-0.821c-0.829,0-1.48,0.273-1.955,0.821
			c-0.475,0.547-0.712,1.302-0.712,2.265s0.237,1.718,0.712,2.266c0.475,0.547,1.126,0.821,1.955,0.821
			C169.962,124.669,170.613,124.395,171.088,123.848z"/>
	</g>
	<path fill="#FFFFFF" d="M63.376,74.702v-4.689H38.442v37.452c1.496-0.709,3.372-1.435,5.628-2.026V91.691h18.203v-4.688H44.07
		V74.702H63.376z"/>
</g>
</svg>
